<?xml version="1.0" encoding="utf-8"?>
<svg viewBox="48 -4.5 283.715 561" xmlns="http://www.w3.org/2000/svg">
  <path d="M518.50083,268.28111h-2.97759V186.71075A47.2107,47.2107,0,0,0,468.31258,139.5H295.49464a47.2107,47.2107,0,0,0-47.21079,47.2106V634.21209a47.2107,47.2107,0,0,0,47.21065,47.21075H468.31235a47.21071,47.21071,0,0,0,47.21084-47.21057v-307.868h2.97764Z" fill="#3f3d56" transform="matrix(1, 0, 0, 1, -191.89233398437503, -139.5)"/>
  <path d="M470.21737,151.7826H447.65892A16.75027,16.75027,0,0,1,432.15047,174.859H333.14532a16.75024,16.75024,0,0,1-15.50845-23.0764H296.56722A35.25642,35.25642,0,0,0,261.31077,187.039V633.88382a35.25643,35.25643,0,0,0,35.25641,35.25646H470.21737a35.25643,35.25643,0,0,0,35.25645-35.25642h0V187.039A35.2564,35.2564,0,0,0,470.21737,151.7826Z" transform="matrix(1, 0, 0, 1, -191.89233398437503, -139.5)" fill="#fff"/>
  <circle id="baf12095-0797-4180-a98d-6422936d747a" data-name="Ellipse 44" cx="191.5" cy="261.2336" r="84.4462" fill="#6cc51d" transform="matrix(1, 0, 0, 1, 0, -1.4210854715202004e-14)"/>
  <path id="b582f34e-fd02-4670-b1d8-d23f069ed737-177" data-name="Path 395" d="M375.02417,432.94733a8.75832,8.75832,0,0,1-5.26905-1.75113l-.09426-.07069-19.846-15.18155a8.81941,8.81941,0,1,1,10.73182-13.99843l12.85463,9.85753L403.77751,372.174a8.81571,8.81571,0,0,1,12.36-1.63259l.00256.00192-.18852.26177.19363-.26177a8.82633,8.82633,0,0,1,1.63067,12.36249l-35.729,46.5917a8.821,8.821,0,0,1-7.01492,3.4394Z" transform="matrix(1, 0, 0, 1, -191.89233398437503, -139.5)" fill="#fff"/>
</svg>