<svg width="17" height="21" viewBox="0 0 17 21" fill="none" xmlns="http://www.w3.org/2000/svg">
<path d="M16.9957 18.1528L15.7795 4.61227C15.7534 4.31166 15.4972 4.08405 15.1975 4.08405H12.6957C12.661 1.82515 10.7933 0 8.5 0C6.20669 0 4.33904 1.82515 4.30429 4.08405H1.8025C1.49847 4.08405 1.24655 4.31166 1.22049 4.61227L0.00434348 18.1528C0.00434348 18.1699 0 18.1871 0 18.2043C0 19.746 1.42897 21 3.18804 21H13.812C15.571 21 17 19.746 17 18.2043C17 18.1871 17 18.1699 16.9957 18.1528ZM8.5 1.15951C10.1461 1.15951 11.4882 2.46503 11.523 4.08405H5.47701C5.51175 2.46503 6.85386 1.15951 8.5 1.15951ZM13.812 19.8405H3.18804C2.08482 19.8405 1.19009 19.119 1.17271 18.2301L2.33674 5.24785H4.29995V7.00859C4.29995 7.33067 4.56055 7.58834 4.88631 7.58834C5.21206 7.58834 5.47266 7.33067 5.47266 7.00859V5.24785H11.523V7.00859C11.523 7.33067 11.7836 7.58834 12.1094 7.58834C12.4351 7.58834 12.6957 7.33067 12.6957 7.00859V5.24785H14.6589L15.8273 18.2301C15.8099 19.119 14.9108 19.8405 13.812 19.8405Z" fill="white"/>
</svg>
