<svg width="13" height="15" viewBox="0 0 13 15" fill="none" xmlns="http://www.w3.org/2000/svg">
<path d="M12.9967 12.9663L12.0667 3.29448C12.0468 3.07975 11.8508 2.91718 11.6216 2.91718H9.70848C9.68191 1.30368 8.2537 0 6.5 0C4.74629 0 3.31809 1.30368 3.29152 2.91718H1.37839C1.14589 2.91718 0.953245 3.07975 0.933316 3.29448L0.00332149 12.9663C0.00332149 12.9785 0 12.9908 0 13.0031C0 14.1043 1.09274 15 2.43791 15H10.5621C11.9073 15 13 14.1043 13 13.0031C13 12.9908 13 12.9785 12.9967 12.9663ZM6.5 0.828221C7.75881 0.828221 8.78513 1.76074 8.8117 2.91718H4.1883C4.21487 1.76074 5.24119 0.828221 6.5 0.828221ZM10.5621 14.1718H2.43791C1.59428 14.1718 0.910067 13.6564 0.896781 13.0215L1.78692 3.74847H3.2882V5.00613C3.2882 5.2362 3.48748 5.42025 3.73659 5.42025C3.98569 5.42025 4.18498 5.2362 4.18498 5.00613V3.74847H8.8117V5.00613C8.8117 5.2362 9.01099 5.42025 9.26009 5.42025C9.5092 5.42025 9.70848 5.2362 9.70848 5.00613V3.74847H11.2098L12.1032 13.0215C12.0899 13.6564 11.4024 14.1718 10.5621 14.1718Z" fill="#6CC51D"/>
</svg>
