<svg width="22" height="22" viewBox="0 0 22 22" fill="none" xmlns="http://www.w3.org/2000/svg">
<path d="M4.87567 13.2951L4.10988 16.1539L1.31093 16.2131C0.474461 14.6616 0 12.8865 0 11.0002C0 9.17614 0.44361 7.45601 1.22994 5.94141H1.23054L3.72238 6.39825L4.81396 8.87514C4.5855 9.5412 4.46097 10.2562 4.46097 11.0002C4.46106 11.8077 4.60733 12.5813 4.87567 13.2951Z" fill="#FBBB00"/>
<path d="M21.8079 8.94531C21.9342 9.61073 22.0001 10.2979 22.0001 11.0003C22.0001 11.7878 21.9173 12.556 21.7596 13.297C21.2241 15.8185 19.8249 18.0203 17.8866 19.5784L17.886 19.5778L14.7474 19.4177L14.3032 16.6447C15.5894 15.8904 16.5945 14.71 17.1239 13.297H11.2419V8.94531H17.2097H21.8079Z" fill="#518EF8"/>
<path d="M17.8857 19.5776L17.8863 19.5782C16.0013 21.0934 13.6066 22 10.9999 22C6.81079 22 3.16872 19.6586 1.31079 16.2129L4.87552 13.2949C5.80446 15.7741 8.19606 17.539 10.9999 17.539C12.205 17.539 13.3341 17.2132 14.3029 16.6445L17.8857 19.5776Z" fill="#28B446"/>
<path d="M18.0213 2.53241L14.4578 5.44981C13.4551 4.82307 12.2699 4.46102 11 4.46102C8.13278 4.46102 5.69646 6.30683 4.81405 8.87494L1.23058 5.94121H1.22998C3.06071 2.41154 6.74872 0 11 0C13.6691 0 16.1163 0.950727 18.0213 2.53241Z" fill="#F14336"/>
</svg>
