<svg width="66" height="66" viewBox="0 0 66 66" fill="none" xmlns="http://www.w3.org/2000/svg">
<circle cx="33" cy="33" r="33" fill="#EBFFD7"/>
<path d="M32.9944 49.0004C32.8891 49.0004 32.7824 48.9751 32.6864 48.9244L17.3667 40.926C17.1467 40.8113 17.0081 40.5834 17.0081 40.3354V25.3382C17.0081 25.1076 17.128 24.893 17.324 24.7717C17.52 24.6504 17.7666 24.6397 17.9719 24.7424L33.2916 32.4076C33.5169 32.5209 33.6596 32.7515 33.6596 33.0035V48.3339C33.6596 48.5672 33.5383 48.7831 33.3383 48.9044C33.2343 48.9684 33.1143 49.0004 32.9944 49.0004ZM18.3411 39.9315L32.3278 47.2341V33.4154L18.3411 26.4167V39.9315Z" fill="#28B446"/>
<path d="M33.0154 49C32.8954 49 32.7755 48.968 32.6701 48.904C32.4715 48.7827 32.3489 48.5667 32.3489 48.3334V33.003C32.3489 32.751 32.4915 32.5204 32.7168 32.4071L48.0366 24.7419C48.2405 24.6379 48.4885 24.6486 48.6845 24.7712C48.8817 24.8925 49.0017 25.1071 49.0017 25.3378V40.3349C49.0017 40.5829 48.8631 40.8108 48.6431 40.9255L33.3234 48.924C33.2274 48.9746 33.1207 49 33.0154 49ZM33.682 33.4149V47.2336L47.6686 39.931V26.4162L33.682 33.4149ZM48.3352 40.3349H48.3485H48.3352Z" fill="#28B446"/>
<path d="M17.6745 26.0045C17.4292 26.0045 17.1946 25.8698 17.0773 25.6365C16.912 25.3073 17.0466 24.9073 17.3759 24.742L32.717 17.0768C32.905 16.9835 33.1263 16.9835 33.3129 17.0768L48.6327 24.742C48.9619 24.9073 49.0952 25.3073 48.9313 25.6365C48.766 25.9658 48.3674 26.0978 48.0368 25.9351L33.0156 18.4179L17.9731 25.9338C17.8771 25.9818 17.7758 26.0045 17.6745 26.0045Z" fill="#28B446"/>
<path d="M41.0037 37.0023C40.6358 37.0023 40.3372 36.7037 40.3372 36.3358V29.4158L25.3853 21.9345C25.0561 21.7706 24.9228 21.3693 25.0881 21.04C25.2534 20.7108 25.6533 20.5788 25.9826 20.7414L41.3023 28.4066C41.5276 28.5213 41.6703 28.7519 41.6703 29.0038V36.3358C41.6703 36.7037 41.3717 37.0023 41.0037 37.0023Z" fill="#28B446"/>
</svg>
