<svg width="66" height="66" viewBox="0 0 66 66" fill="none" xmlns="http://www.w3.org/2000/svg">
<circle cx="33" cy="33" r="33" fill="#EBFFD7"/>
<path d="M32.9997 17.5674C26.3828 17.5674 20.9995 22.9506 20.9995 29.5676C20.9995 33.2892 22.9251 37.6115 26.7229 42.4146C29.5018 45.9292 32.2407 48.3581 32.356 48.4597C32.7238 48.7842 33.2756 48.7843 33.6435 48.4597C33.7587 48.3581 36.4977 45.9292 39.2766 42.4146C43.0744 37.6115 45 33.2892 45 29.5676C45 22.9506 39.6167 17.5674 32.9997 17.5674V17.5674ZM32.9997 46.4027C30.6874 44.199 22.9455 36.3155 22.9455 29.5676C22.9455 24.0237 27.4558 19.5134 32.9997 19.5134C38.5437 19.5134 43.054 24.0237 43.054 29.5676C43.054 36.3155 35.312 44.1991 32.9997 46.4027Z" fill="#6CC51D"/>
<path d="M40.4439 28.9912L33.633 23.1532C33.2686 22.8409 32.7309 22.8409 32.3666 23.1532L25.5556 28.9912C25.1476 29.3408 25.1004 29.9551 25.4501 30.3631C25.7998 30.7711 26.4141 30.8184 26.8221 30.4686L27.6483 29.7604V34.5949C27.6483 35.1322 28.0839 35.5679 28.6213 35.5679H37.3782C37.9155 35.5679 38.3512 35.1322 38.3512 34.5949V29.7604L39.1774 30.4686C39.5873 30.82 40.2013 30.7693 40.5494 30.3631C40.8992 29.9551 40.8519 29.3409 40.4439 28.9912ZM36.4052 33.6219H29.5943V28.0924L32.9997 25.1734L36.4052 28.0924V33.6219Z" fill="#6CC51D"/>
</svg>
