<svg width="52" height="52" viewBox="0 0 52 52" fill="none" xmlns="http://www.w3.org/2000/svg">
<circle cx="26" cy="26" r="26" fill="#F5F5F5"/>
<g clip-path="url(#clip0_91_961)">
<path d="M35.2671 18.4391C35.0964 18.3386 34.8864 18.3316 34.7095 18.4204C34.5328 18.5095 34.4133 18.6822 34.3921 18.8789C34.3711 19.0703 34.3385 19.2616 34.2976 19.4623C33.1555 24.6458 30.8618 27.1669 27.2836 27.1669H22.0336C21.7568 27.1674 21.5185 27.3624 21.4631 27.6336L19.7131 35.8364L19.4005 37.9247C19.2207 38.8744 19.8448 39.79 20.7944 39.9697C20.8991 39.9895 21.0054 39.9998 21.112 40.0002H24.6236C25.4285 40.0027 26.1303 39.4534 26.3211 38.6714L27.7398 33.0003H30.7836C34.3758 33.0003 36.8584 30.1361 37.7742 24.9351C38.3788 22.4585 37.3786 19.8673 35.2671 18.4391Z" fill="#03A9F4"/>
<path d="M34.167 14.079C33.0143 12.7715 31.36 12.0156 29.617 12H19.957C18.5113 11.9923 17.2805 13.05 17.0707 14.4803L14.0712 34.4898C13.9275 35.4456 14.5858 36.3368 15.5416 36.4805C15.6283 36.4936 15.716 36.5001 15.8037 36.5H20.2837C20.5605 36.4995 20.7988 36.3045 20.8542 36.0333L22.505 28.3334H27.2884C31.4394 28.3334 34.1822 25.4319 35.4422 19.7C35.4928 19.4715 35.5318 19.2407 35.5589 19.0082C35.8513 17.2399 35.3411 15.4332 34.167 14.079Z" fill="#283593"/>
</g>
<defs>
<clipPath id="clip0_91_961">
<rect width="28" height="28" fill="white" transform="translate(12 12)"/>
</clipPath>
</defs>
</svg>
