<svg width="52" height="52" viewBox="0 0 52 52" fill="none" xmlns="http://www.w3.org/2000/svg">
<circle cx="26" cy="26" r="26" fill="#F5F5F5"/>
<path d="M22.715 20L20.9083 31.2433H23.7962L25.6018 20H22.715ZM31.4259 24.5799C30.4168 24.0815 29.7981 23.7452 29.7981 23.2355C29.8104 22.772 30.3213 22.2972 31.462 22.2972C32.4002 22.2737 33.0898 22.4942 33.613 22.7135L33.8751 22.8305L34.2677 20.4781C33.6973 20.2576 32.7928 20.0147 31.6757 20.0147C28.8238 20.0147 26.8157 21.4974 26.8032 23.6181C26.7797 25.183 28.2409 26.0514 29.3345 26.5724C30.4517 27.1067 30.832 27.4532 30.832 27.928C30.8196 28.657 29.9286 28.9933 29.0973 28.9933C27.9453 28.9933 27.3265 28.8201 26.3872 28.4139L26.0069 28.2407L25.603 30.6853C26.2814 30.9869 27.529 31.2523 28.8239 31.2659C31.8547 31.2659 33.8268 29.8056 33.8516 27.5455C33.8615 26.3057 33.0909 25.3561 31.4259 24.5799ZM41.6713 20.0348H39.437C38.7485 20.0348 38.2253 20.2328 37.9272 20.9393L33.6375 31.2433H36.6683L37.503 29.0125H40.8938L41.3269 31.2523H44L41.6713 20.0348ZM38.3435 26.7611C38.402 26.7668 39.5068 23.1195 39.5068 23.1195L40.3866 26.7611C40.3866 26.7611 38.914 26.7611 38.3435 26.7611ZM18.4952 20L15.6658 27.6388L15.3576 26.1324C14.8344 24.3942 13.1942 22.5054 11.3638 21.5671L13.9547 31.2321H17.0102L21.5508 20.0012H18.4952V20Z" fill="#2394BC"/>
<path d="M14.4058 21.4503C14.1853 20.593 13.4821 20.0148 12.5271 20.0024H8.04615L8 20.2105C11.4954 21.0722 14.4293 23.7238 15.3812 26.218L14.4058 21.4503Z" fill="#EFC75E"/>
</svg>
