<svg width="66" height="66" viewBox="0 0 66 66" fill="none" xmlns="http://www.w3.org/2000/svg">
<circle cx="33" cy="33" r="33" fill="#D2EFFF"/>
<g clip-path="url(#clip0_160_1528)">
<path d="M47.906 33.8404H46.9517C45.6575 27.5667 40.2382 22.7861 33.6711 22.4796C33.6359 22.4666 33.5998 22.4551 33.5626 22.4457C32.2732 22.1212 31.3727 20.8592 31.3727 19.3768C31.3727 18.125 32.3886 17.1065 33.6373 17.1065C34.5202 17.1065 35.2384 17.8268 35.2384 18.712C35.2384 19.2937 35.71 19.7653 36.2916 19.7653C36.8733 19.7653 37.3449 19.2937 37.3449 18.712C37.3449 16.6652 35.6817 15 33.6373 15C31.2271 15 29.2662 16.9634 29.2662 19.3768C29.2662 20.632 29.6755 21.7952 30.3735 22.7073C24.7072 23.7694 20.2115 28.2017 19.0483 33.8404H18.0939C16.4015 33.8404 15.0247 35.2163 15.0247 36.9076C15.0247 38.5989 16.4015 39.9748 18.0939 39.9748H19.1256C20.5955 46.2852 26.2582 51 33 51C39.7417 51 45.4044 46.2851 46.8744 39.9748H47.906C49.5984 39.9748 50.9753 38.5989 50.9753 36.9076C50.9753 35.2163 49.5984 33.8404 47.906 33.8404ZM29.295 37.7203C28.7133 37.7186 28.243 37.2458 28.2447 36.6641C28.2452 36.5 28.195 35.6811 27.1576 35.6781C27.1558 35.6781 27.1539 35.6781 27.152 35.6781C26.1201 35.6781 26.0654 36.4941 26.065 36.6579C26.0634 37.2395 25.5911 37.7116 25.0088 37.7081C24.4271 37.7064 23.9569 37.2335 23.9585 36.6518C23.9612 35.7164 24.3341 34.8893 25.0086 34.323C25.586 33.8383 26.3473 33.5716 27.1532 33.5716H27.1636C27.9735 33.5739 28.7373 33.8452 29.3143 34.3353C29.9855 34.9054 30.3537 35.7345 30.3511 36.67C30.3495 37.2506 29.8782 37.7202 29.2979 37.7202C29.297 37.7203 29.296 37.7203 29.295 37.7203ZM33 46.8044C31.1403 46.8044 29.6273 45.2925 29.6273 43.4339C29.6273 42.8523 30.0989 42.3807 30.6805 42.3807C31.2622 42.3807 31.7338 42.8523 31.7338 43.4339C31.7338 44.1309 32.3017 44.698 33 44.698C33.6982 44.698 34.2662 44.1309 34.2662 43.4339C34.2662 42.8523 34.7378 42.3807 35.3194 42.3807C35.9011 42.3807 36.3727 42.8523 36.3727 43.4339C36.3726 45.2925 34.8597 46.8044 33 46.8044ZM40.9881 37.7203C40.9871 37.7203 40.9861 37.7203 40.985 37.7203C40.4034 37.7186 39.9332 37.2457 39.9348 36.6641C39.9359 36.2817 39.7949 36.0136 39.5037 35.8444C39.124 35.6238 38.5719 35.6222 38.191 35.8407C37.8988 36.0083 37.7563 36.2755 37.7552 36.6579C37.7535 37.2386 37.2822 37.7081 36.702 37.7081C36.7009 37.7081 36.6999 37.7081 36.699 37.7081C36.1173 37.7064 35.6471 37.2336 35.6487 36.6518C35.6519 35.5179 36.1965 34.5562 37.1429 34.0134C38.1831 33.4168 39.5253 33.4206 40.5621 34.0231C41.5054 34.5713 42.0445 35.536 42.0413 36.67C42.0397 37.2507 41.5684 37.7203 40.9881 37.7203Z" fill="#1BADFF"/>
</g>
<defs>
<clipPath id="clip0_160_1528">
<rect width="36" height="36" fill="white" transform="translate(15 15)"/>
</clipPath>
</defs>
</svg>
