<svg width="66" height="66" viewBox="0 0 66 66" fill="none" xmlns="http://www.w3.org/2000/svg">
<circle cx="33" cy="33" r="33" fill="#FFF6E3"/>
<g clip-path="url(#clip0_160_1423)">
<path d="M45.2461 21.1406H40.269L40.7436 18.4336H42.5391C43.073 18.4336 43.5059 18.0007 43.5059 17.4668C43.5059 16.9329 43.073 16.5 42.5391 16.5H39.9316C39.4621 16.5 39.0604 16.8373 38.9794 17.2999L38.306 21.1406H20.7539C20.22 21.1406 19.7871 21.5735 19.7871 22.1074V26.748C19.7871 27.282 20.22 27.7148 20.7539 27.7148H22.3973C22.6579 29.8522 22.8412 31.3554 23.0484 33.0534C27.216 34.0059 27.9207 36.6094 33 36.6094C38.0696 36.6094 38.7939 34.0049 42.9516 33.0527C43.0895 31.9227 43.4647 28.8457 43.6027 27.7148H45.2461C45.78 27.7148 46.2129 27.282 46.2129 26.748V22.1074C46.2129 21.5735 45.78 21.1406 45.2461 21.1406Z" fill="#F5BA3C"/>
<path d="M32.9999 38.5428C27.7277 38.5428 26.3739 36.0969 23.3008 35.1224L24.4792 44.7829C24.4792 44.7829 24.4792 44.783 24.4792 44.7831L24.9504 48.6501C25.0096 49.1351 25.4214 49.4998 25.9101 49.4998H40.0898C40.5785 49.4998 40.9903 49.1351 41.0495 48.6501L41.2076 47.3528C41.2076 47.3528 42.6992 35.1212 42.6992 35.1211C39.6306 36.095 38.272 38.5428 32.9999 38.5428ZM39.2337 47.5662H26.7662L26.5307 45.6326H39.4694C39.382 46.3497 39.3136 46.9102 39.2337 47.5662Z" fill="#F5BA3C"/>
</g>
<defs>
<clipPath id="clip0_160_1423">
<rect width="33" height="33" fill="white" transform="translate(16.5 16.5)"/>
</clipPath>
</defs>
</svg>
