<svg width="66" height="66" viewBox="0 0 66 66" fill="none" xmlns="http://www.w3.org/2000/svg">
<circle cx="33" cy="33" r="33" fill="#DCF4F5"/>
<path d="M40.5879 17.4668C40.5879 16.9329 40.155 16.5 39.6211 16.5H35.7539C35.22 16.5 34.7871 16.9329 34.7871 17.4668V19.1426H40.5879V17.4668Z" fill="#0CD4DC"/>
<path d="M23.5426 44.4268C22.6913 43.9246 21.9056 43.3159 21.2074 42.6177C21.1564 42.5667 21.1067 42.5147 21.0568 42.4629C19.9056 43.0364 18.8653 43.8377 18.0043 44.8358C17.6913 45.1986 17.6913 45.736 18.0043 46.0989C19.8689 48.2603 22.5741 49.4999 25.4262 49.4999C26.2769 49.4999 27.1142 49.3888 27.9204 49.1767C26.9083 48.1088 26.0818 46.8861 25.4681 45.5628L23.5426 44.4268Z" fill="#0CD4DC"/>
<path d="M24.5254 42.7615C24.3227 41.8311 24.2168 40.8737 24.2168 39.9037C24.2168 37.7086 24.7513 35.5915 25.7263 33.7093C24.1651 32.9298 22.4062 32.5731 20.6249 32.7044C20.1469 32.7396 19.7669 33.1196 19.7317 33.5975C19.5219 36.4444 20.5583 39.2338 22.5749 41.2505C23.1649 41.8404 23.8212 42.346 24.5254 42.7615Z" fill="#0CD4DC"/>
<path d="M43.236 29.7865C41.6858 28.9346 40.7966 27.4317 40.7966 25.6629V23.0057C41.293 22.9648 41.6833 22.5498 41.6833 22.0429C41.6833 21.5352 41.2915 21.1196 40.7939 21.0801C40.7937 21.0775 34.5806 21.0775 34.5805 21.0801C34.0829 21.1196 33.6911 21.5352 33.6911 22.0429C33.6911 22.5498 34.0814 22.9648 34.5778 23.0057V25.6629C34.5778 27.4316 33.6886 28.9346 32.1384 29.7865C29.601 31.1808 27.724 33.4467 26.7974 36.0937H48.577C47.6504 33.4466 45.7734 31.1807 43.236 29.7865Z" fill="#0CD4DC"/>
<path d="M49.0702 38.0273H26.3047C26.2034 38.6418 26.1504 39.2688 26.1504 39.9037C26.1504 43.6385 27.9718 47.1593 31.0228 49.3219C31.1862 49.4377 31.3815 49.5 31.5819 49.5H43.793C43.9933 49.5 44.1887 49.4378 44.3521 49.3219C47.403 47.1593 49.2245 43.6385 49.2245 39.9037C49.2246 39.2689 49.1715 38.6418 49.0702 38.0273Z" fill="#0CD4DC"/>
</svg>
