<svg width="66" height="66" viewBox="0 0 66 66" fill="none" xmlns="http://www.w3.org/2000/svg">
<circle cx="33" cy="33" r="33" fill="#FFE9E5"/>
<path d="M34.3597 25.7035C34.9487 24.7199 35.8807 23.3121 37.058 21.9613H37.0594C38.0564 20.8149 40.009 19.3434 40.009 19.3434C40.3024 19.1217 40.271 18.8128 39.9373 18.6573L37.5773 17.5544C37.2436 17.3983 36.79 17.5122 36.5689 17.8064C36.5689 17.8064 34.8234 20.3103 32.769 25.6405C26.4168 22.7674 20.3789 26.7917 20.3789 33.7896C20.3789 41.0991 26.0027 52.2025 33.6079 48.8509C41.6178 52.3171 46.8409 41.0998 46.8409 33.7896C46.8409 26.7314 41.4134 22.5932 34.3597 25.7035Z" fill="#F8644A"/>
<path d="M32.937 23.3366C33.3042 23.3057 33.6285 22.9808 33.6579 22.6142C33.6579 22.6142 33.8938 19.7558 31.9017 17.7618C29.9036 15.767 27.0505 16.0049 27.0505 16.0049C26.6833 16.0357 26.359 16.3607 26.3288 16.7272C26.3288 16.7272 26.089 19.587 28.0837 21.5817C30.0772 23.5744 32.937 23.3366 32.937 23.3366Z" fill="#F8644A"/>
</svg>
