<svg width="66" height="66" viewBox="0 0 66 66" fill="none" xmlns="http://www.w3.org/2000/svg">
<circle cx="33" cy="33" r="33" fill="#F3EFFA"/>
<path d="M44.1087 27.9746C41.2395 29.1701 38.2497 29.926 35.1862 30.2336L36.6304 27.7321L41.5552 28.0277C42.1022 28.0605 42.5724 27.6437 42.6052 27.0967C42.638 26.5497 42.2212 26.0796 41.6742 26.0467L37.7398 25.8106L38.6149 24.2949L43.5398 24.5905C44.0868 24.6233 44.5569 24.2065 44.5897 23.6595C44.6225 23.1125 44.2057 22.6424 43.6587 22.6095L39.7243 22.3734L40.8234 20.4696C41.9194 18.5712 44.3469 17.9208 46.2453 19.0168C48.1437 20.1128 48.7941 22.5403 47.698 24.4387L46.1469 27.1253L44.1087 27.9746Z" fill="#AE80FF"/>
<path d="M32.0235 30.3918C30.7068 30.3918 29.4006 30.3105 28.1082 30.1491C28.0735 29.9041 28.0544 29.6541 28.0544 29.3995C28.0544 26.4768 30.4237 24.1074 33.3465 24.1074C34.3199 24.1074 35.2311 24.3714 36.0146 24.8299L32.809 30.3821C32.5476 30.3886 32.2858 30.3918 32.0235 30.3918Z" fill="#AE80FF"/>
<path d="M26.7703 26.2862C26.0371 24.3471 25.9028 22.888 25.9009 22.8657C25.8544 22.3197 25.3739 21.916 24.8281 21.961C24.2821 22.0074 23.8771 22.4877 23.9235 23.0338C23.9356 23.1763 24.2112 26.1711 26.0713 29.4672C26.0724 29.5882 26.0774 29.7084 26.0844 29.828C23.9879 29.4246 21.9338 28.8062 19.9381 27.9747L18.7438 27.477C18.9007 27.0923 19.1195 26.7338 19.3937 26.4175C18.0467 25.8203 17.1394 24.479 17.1394 22.9497C17.1394 20.8524 18.8457 19.1461 20.9431 19.1461C21.2755 19.1461 21.6044 19.1906 21.9265 19.2789C22.3762 17.6585 23.8499 16.5 25.5737 16.5C27.2526 16.5 28.706 17.5945 29.1958 19.1634C29.3127 19.1518 29.428 19.1461 29.5428 19.1461C31.3565 19.1461 32.8769 20.4225 33.2551 22.124C30.3949 22.1594 27.927 23.8532 26.7703 26.2862Z" fill="#AE80FF"/>
<path d="M19.1747 29.8062C23.267 31.5114 27.5899 32.376 32.0233 32.376C36.4567 32.376 40.7796 31.5114 44.872 29.8062C45.5681 29.5162 46.3205 30.078 46.2402 30.8279C45.9096 33.9132 44.7131 45.2008 44.4454 47.7086C44.2835 49.2253 43.0109 50.3691 41.4854 50.3691H22.5613C21.0357 50.3691 19.7633 49.2253 19.6013 47.7085C19.3336 45.2008 18.1371 33.9131 17.8065 30.8278C17.7261 30.078 18.4786 29.5162 19.1747 29.8062ZM24.4159 43.754C24.4159 44.302 24.8602 44.7462 25.4082 44.7462H38.6385C39.1865 44.7462 39.6307 44.302 39.6307 43.754V38.4619C39.6307 37.9139 39.1865 37.4696 38.6385 37.4696H25.4082C24.8602 37.4696 24.4159 37.9139 24.4159 38.4619V43.754Z" fill="#AE80FF"/>
<path d="M37.6465 39.4551H26.4008V42.7626H37.6465V39.4551Z" fill="#AE80FF"/>
</svg>
