<svg width="66" height="66" viewBox="0 0 66 66" fill="none" xmlns="http://www.w3.org/2000/svg">
<circle cx="33" cy="33" r="33" fill="#E6F2EA"/>
<path d="M22.8541 32.8488C22.8541 31.9256 23.1278 31.0377 23.6366 30.2861C23.4695 29.7468 23.3831 29.1818 23.3831 28.6218C23.3831 26.207 24.9061 24.1033 27.1141 23.3135C27.311 21.5131 28.4667 19.9638 30.0952 19.2222C29.2582 17.8685 27.9371 17.0748 26.7192 17.2721C25.839 17.415 25.1098 18.0126 24.6812 18.9145C23.9098 18.5602 23.1076 18.5013 22.4042 18.7485C21.6429 19.0165 21.0516 19.5893 20.6943 20.4049C20.2203 21.4851 20.2197 22.8752 20.678 24.197C20.0604 24.6207 19.5987 25.2435 19.3289 26.0243C18.8751 27.3354 19.0265 28.9172 19.744 30.3662C19.8225 30.5243 19.9084 30.6812 20.0021 30.8354C19.3283 31.2732 18.824 31.9223 18.5536 32.7143C18.1239 33.971 18.3141 35.452 19.0753 36.7759C19.4248 37.3841 19.8876 37.9351 20.4267 38.388C20.2466 39.1414 20.383 39.9693 20.8216 40.7188C21.4348 41.7642 22.5394 42.4732 23.7197 42.5926C25.3005 45.5612 27.2112 47.0758 29.9437 48.388C26.6973 44.5534 24.8921 41.3774 24.7906 36.5882C23.5957 35.7356 22.8541 34.3348 22.8541 32.8488Z" fill="#28B446"/>
<path d="M47.8324 28.4702C47.8773 26.2875 46.5944 24.3239 44.6063 23.4753C44.3162 21.6126 42.8139 20.1569 40.947 19.9103C40.9302 19.7247 40.8948 19.5398 40.8415 19.357C40.5122 18.2337 39.521 17.3879 38.376 17.2522C37.6271 17.1631 36.9192 17.3509 36.3341 17.7617C35.8124 17.417 35.2048 17.2309 34.5821 17.2309C32.9783 17.2309 31.6454 18.4148 31.4132 19.954C29.5793 20.324 28.2044 21.9568 28.2044 23.8671C28.2044 23.9697 28.2089 24.0723 28.2167 24.1765C26.0906 24.5588 24.5031 26.4046 24.5031 28.6227C24.5031 29.2639 24.6416 29.8996 24.9075 30.4842C24.3101 31.1227 23.9746 31.9629 23.9746 32.8497C23.9746 34.1748 24.7364 35.3766 25.9072 35.9551C25.8556 41.0352 27.7074 44.1193 31.3201 48.2751L31.5237 48.5066L31.5607 48.5486C32.1082 49.1624 32.8964 49.4999 33.7811 49.4999C33.9342 49.4999 34.0851 49.487 34.2338 49.4679L34.0419 49.0957C32.8364 46.2308 32.0965 43.6871 31.6836 41.4259C30.128 40.9472 29.4554 39.705 29.4256 39.6479C29.2809 39.3743 29.3869 39.0346 29.6607 38.8906C29.9328 38.7465 30.271 38.8508 30.4174 39.1227C30.4382 39.1613 30.7647 39.7353 31.4788 40.1266C31.2836 38.6596 31.2269 37.32 31.2836 36.1126C31.2769 36.0515 31.2797 35.9915 31.2937 35.9298C31.3913 34.2039 31.7066 32.7432 32.1228 31.519C30.2329 30.3929 29.9995 28.2965 30.1622 27.2791C30.211 26.9736 30.4993 26.7623 30.8045 26.8138C31.1103 26.8626 31.3184 27.149 31.2707 27.454C31.2567 27.5442 31.0048 29.4035 32.5351 30.4495C32.6114 30.2729 32.6883 30.0975 32.7679 29.9332C34.2433 26.8906 36.352 25.3766 37.1683 24.8772C37.1666 23.7544 37.9031 22.7791 37.9379 22.7337C38.1258 22.4876 38.4793 22.4417 38.7238 22.6289C38.9696 22.8167 39.0167 23.1681 38.8293 23.4136C38.7042 23.5795 38.4585 23.9927 38.3486 24.4473C39.6405 24.301 40.9016 25.0297 40.9655 25.0678C41.2331 25.2253 41.3212 25.5689 41.1641 25.8351C41.0592 26.0123 40.8718 26.1109 40.6805 26.1109C40.5835 26.1109 40.4859 26.0863 40.3967 26.0336C40.0057 25.8054 38.8153 25.3015 37.9996 25.6916C37.8577 25.764 36.9029 26.2774 35.8163 27.4102C38.0417 27.2483 39.5894 27.9086 39.6674 27.9422C39.9507 28.0672 40.0797 28.3979 39.9558 28.681C39.8632 28.8906 39.6573 29.0162 39.4413 29.0162C39.3667 29.0162 39.2904 29.0016 39.2175 28.9691C39.1754 28.9512 37.2776 28.1653 34.7622 28.6883C34.2585 29.3962 33.7738 30.2449 33.3721 31.2561C33.371 31.3301 33.3558 31.4052 33.3233 31.4769C33.302 31.5246 33.2734 31.5661 33.242 31.6042C32.9228 32.4781 32.6653 33.4607 32.5105 34.5705C33.7788 33.7757 35.3787 33.7409 35.4702 33.7398H35.4769C35.7832 33.7398 36.0328 33.9853 36.0373 34.2925C36.0418 34.6019 35.7939 34.8559 35.4848 34.8609C35.4612 34.8615 33.1528 34.9153 32.3674 36.2533C32.3124 37.6204 32.4072 39.1468 32.6989 40.8452C32.7017 40.8581 32.7034 40.871 32.7051 40.8844C33.0978 43.1484 33.836 45.7106 35.0595 48.6193L35.3266 49.1338C35.7383 48.9264 36.0929 48.6394 36.3459 48.2863C36.7683 47.6966 36.8681 46.9814 36.6258 46.2723C35.6115 43.2986 35.643 41.0296 36.7189 39.5274C38.1135 37.5795 41.0182 37.2886 42.6249 37.2886C43.4523 37.2886 44.0206 37.3648 44.0262 37.3659L44.6029 37.4444L44.6607 36.8659C44.6685 36.7897 44.834 34.9837 43.7794 33.7566C43.7182 33.6854 43.6537 33.6182 43.5875 33.5537C43.8854 33.487 44.1799 33.3923 44.4694 33.2701C46.4687 32.4276 47.7893 30.5431 47.8324 28.4702Z" fill="#28B446"/>
</svg>
